# xmcd
# 
# Track frame offsets:
#     150
#     22180
#     52877
#     77891
#     93438
#     111254
#     124534
#     142400
#     162344
#     184220
#     198968
#     211117
#     233187
#     253642
#     269804
#     292435
# 
# Disc length: 4095
# 
# Revision: 3
# Processed by: cddbd v1.5.2PL0 Copyright (c) Steve Scherf et al.
# Submitted via: fre:ac v1.0.17
# 
DISCID=fa0ffd10
DTITLE=Διάφοροι - 48 Αδέσποτα Ρεμπέτικα 1
DYEAR=2005
DGENRE=Ρεμπέτικα
TTITLE0=Γιάννης Λέμπεσης - Τα μαλλιά σου τα πλεγμένα
TTITLE1=Γιάννης Λέμπεσης - Ασημένια - Γιωργίτσα
TTITLE2=Γιάννης Λέμπεσης - Μπαγλαμάδες
TTITLE3=Γιάννης Λέμπεσης - Μωρή Ντουντού
TTITLE4=Γιάννης Λέμπεσης - Η τράτα
TTITLE5=Γιάννης Λέμπεσης - Αντριάννα μου γλυκειά
TTITLE6=Γιάννης Λέμπεσης - Ασημένια - Τον άλλο μήνα
TTITLE7=Ασημένια - Τζιβαέρι
TTITLE8=Γιάννης Λέμπεσης - Πότε μαύρα - πότε άσπρα
TTITLE9=Γιώργος Ζορμπάς - Από λίγο - λίγο
TTITLE10=Γιάννης Λέμπεσης - Μπάτσοι και χωροφυλάκοι
TTITLE11=Γιάννης Λέμπεσης - Ασημένια - Μελαχροινό με τις ελιές
TTITLE12=Ορχηστρικό - Συρτός Πολίτικος
TTITLE13=Ασημένια - Ολμάζ
TTITLE14=Γιάννης Λέμπεσης - Ησουνα Ξυπόλυτη
TTITLE15=Νίκος Σαραγούδας - Σμύρνη και Κορδελιό
EXTD=astos
EXTT0=
EXTT1=
EXTT2=
EXTT3=
EXTT4=
EXTT5=
EXTT6=
EXTT7=
EXTT8=
EXTT9=
EXTT10=
EXTT11=
EXTT12=
EXTT13=
EXTT14=
EXTT15=
PLAYORDER=
